<?xml version="1.0" encoding="UTF-8" standalone="no"?>
<!-- Created with Inkscape (http://www.inkscape.org/) -->

<svg
   xmlns:dc="http://purl.org/dc/elements/1.1/"
   xmlns:cc="http://creativecommons.org/ns#"
   xmlns:rdf="http://www.w3.org/1999/02/22-rdf-syntax-ns#"
   xmlns:svg="http://www.w3.org/2000/svg"
   xmlns="http://www.w3.org/2000/svg"
   xmlns:sodipodi="http://sodipodi.sourceforge.net/DTD/sodipodi-0.dtd"
   xmlns:inkscape="http://www.inkscape.org/namespaces/inkscape"
   width="2000px"
   height="2000px"
   viewBox="0 0 2000 2000"
   version="1.1"
   id="SVGRoot"
   inkscape:version="0.92.1 r15371"
   sodipodi:docname="final2.svg">
  <sodipodi:namedview
     id="base"
     pagecolor="#ffffff"
     bordercolor="#666666"
     borderopacity="1.0"
     inkscape:pageopacity="0.0"
     inkscape:pageshadow="2"
     inkscape:zoom="0.35"
     inkscape:cx="1000"
     inkscape:cy="1000"
     inkscape:document-units="px"
     inkscape:current-layer="layer1"
     showgrid="false"
     inkscape:window-width="1920"
     inkscape:window-height="1027"
     inkscape:window-x="-8"
     inkscape:window-y="1072"
     inkscape:window-maximized="1" />
  <defs
     id="defs5056" />
  <metadata
     id="metadata5059">
    <rdf:RDF>
      <cc:Work
         rdf:about="">
        <dc:format>image/svg+xml</dc:format>
        <dc:type
           rdf:resource="http://purl.org/dc/dcmitype/StillImage" />
        <dc:title></dc:title>
      </cc:Work>
    </rdf:RDF>
  </metadata>
  <g
     id="layer1"
     inkscape:groupmode="layer"
     inkscape:label="Layer 1">
    <path
       style="opacity:1;fill:#000007;fill-opacity:1;stroke:#ffffff;stroke-width:255.59553528;stroke-linejoin:round;stroke-miterlimit:4;stroke-dasharray:none;stroke-opacity:0"
       d="M 977.14258 337.26953 A 697.01666 677.0166 0 0 0 280.12695 1014.2852 A 697.01666 677.0166 0 0 0 977.14258 1691.3027 A 697.01666 677.0166 0 0 0 1674.1602 1014.2852 A 697.01666 677.0166 0 0 0 977.14258 337.26953 z M 1008.7305 552.59961 C 1062.6701 552.59961 1116.3849 558.37298 1169.875 569.91992 C 1223.8146 581.46686 1283.5981 601.77341 1349.2246 630.83984 L 1349.2246 771.19531 L 1339.1094 771.19531 C 1283.8213 730.18377 1228.9828 700.31948 1174.5938 681.60547 C 1120.2047 662.89146 1061.9954 653.53516 999.96484 653.53516 C 949.17172 653.53516 903.32412 660.90051 862.41992 675.63281 C 821.96522 689.96695 785.7795 712.46393 753.86523 743.12305 C 722.84997 772.98582 698.57724 810.81197 681.04688 856.60156 C 663.966 901.99298 655.42578 954.55179 655.42578 1014.2773 C 655.42578 1076.7901 664.86528 1130.5439 683.74414 1175.5371 C 703.0725 1220.5304 727.79388 1257.1615 757.91016 1285.4316 C 789.37492 1314.8962 826.00931 1336.7948 867.8125 1351.1289 C 910.06518 1365.0649 954.5668 1372.0332 1001.3145 1372.0332 C 1065.5925 1372.0332 1125.8246 1362.2779 1182.0117 1342.7676 C 1238.1988 1323.2572 1290.79 1293.9914 1339.7852 1254.9707 L 1349.2246 1254.9707 L 1349.2246 1393.5352 C 1324.5023 1403.0912 1302.0262 1412.0505 1281.7988 1420.4121 C 1262.021 1428.7737 1235.9516 1437.5315 1203.5879 1446.6895 C 1176.1686 1454.2547 1146.2759 1460.6265 1113.9121 1465.8027 C 1081.9978 1471.3771 1046.7134 1474.1641 1008.0566 1474.1641 C 935.23818 1474.1641 868.93735 1465.2048 809.1543 1447.2871 C 749.82074 1428.9713 698.1288 1400.5034 654.07812 1361.8809 C 610.92645 1324.0547 577.21422 1276.0743 552.94141 1217.9414 C 528.66859 1159.4104 516.53125 1091.5224 516.53125 1014.2773 C 516.53125 941.014 528.21797 875.51595 551.5918 817.78125 C 574.96562 760.04655 608.67784 711.27016 652.72852 671.45312 C 695.4307 632.8306 746.89831 603.36528 807.13086 583.05859 C 867.81291 562.75191 935.01302 552.59961 1008.7305 552.59961 z "
       id="path5615" />
  </g>
</svg>
